<svg version="1.1" width="200" viewBox="0.0 0.0 1393.8267716535433 347.31758530183725" fill="none" stroke="none" stroke-linecap="square" stroke-miterlimit="10" xmlns:xlink="http://www.w3.org/1999/xlink" xmlns="http://www.w3.org/2000/svg"><clipPath id="p.0"><path d="m0 0l1393.8268 0l0 347.3176l-1393.8268 0l0 -347.3176z" clip-rule="nonzero"/></clipPath><g clip-path="url(#p.0)"><path fill="#000000" fill-opacity="0.0" d="m0 0l1393.8268 0l0 347.3176l-1393.8268 0z" fill-rule="evenodd"/><g filter="url(#shadowFilter-p.1)"><use xlink:href="#p.1" transform="matrix(1.0 0.0 0.0 1.0 0.0 2.0)"/></g><defs><filter id="shadowFilter-p.1" filterUnits="userSpaceOnUse"><feGaussianBlur in="SourceAlpha" stdDeviation="2.0" result="blur"/><feComponentTransfer in="blur" color-interpolation-filters="sRGB"><feFuncR type="linear" slope="0" intercept="0.0"/><feFuncG type="linear" slope="0" intercept="0.0"/><feFuncB type="linear" slope="0" intercept="0.0"/><feFuncA type="linear" slope="0.5" intercept="0"/></feComponentTransfer></filter></defs><g id="p.1"><path fill="#000000" fill-opacity="0.0" d="m307.20996 80.88189l1091.5276 0l0 254.4567l-1091.5276 0z" fill-rule="evenodd"/><path fill="#ffffff" d="m371.89746 245.07564q-10.25 0 -19.53125 -3.1875q-9.28125 -3.203125 -16.15625 -8.953125q-6.875 -5.765625 -10.078125 -13.296875q-1.609375 -3.359375 0.078125 -6.234375q1.6875 -2.875 5.6875 -3.6875q2.875 -0.640625 5.671875 0.890625q2.796875 1.515625 4.234375 4.5625q1.921875 4.0 6.3125 7.359375q4.40625 3.359375 10.640625 5.4375q6.25 2.078125 13.140625 2.078125q7.671875 0 14.140625 -2.390625q6.484375 -2.40625 10.484375 -6.96875q4.0 -4.5625 4.0 -11.28125q0 -8.484375 -6.640625 -15.203125q-6.625 -6.71875 -21.828125 -8.3125q-19.84375 -1.921875 -31.203125 -11.6875q-11.359375 -9.765625 -11.359375 -24.15625q0 -10.5625 5.921875 -17.921875q5.921875 -7.3593826 16.078125 -11.203133q10.15625 -3.84375 22.640625 -3.84375q9.765625 0 17.03125 2.734375q7.28125 2.71875 12.71875 7.515625q5.453125 4.7968826 9.453125 11.359383q2.234375 3.515625 1.828125 6.640625q-0.390625 3.109375 -3.109375 4.875q-3.046875 1.921875 -6.5625 0.8125q-3.515625 -1.125 -5.28125 -4.171875q-2.5625 -4.640625 -6.25 -7.84375q-3.671875 -3.203125 -8.640625 -5.03125q-4.953125 -1.84375 -11.671875 -1.84375q-11.84375 -0.15625 -19.84375 4.40625q-8.0 4.546875 -8.0 14.0q0 4.796875 2.484375 9.203125q2.484375 4.390625 9.125 7.59375q6.640625 3.203125 19.109375 4.46875q19.046875 1.921875 29.6875 11.609375q10.640625 9.671875 10.640625 25.515625q0 9.125 -3.765625 15.84375q-3.75 6.71875 -10.078125 11.28125q-6.3125 4.5625 -14.40625 6.796875q-8.078125 2.234375 -16.703125 2.234375zm105.5957 -0.796875q-11.046875 0 -19.765625 -4.71875q-8.71875 -4.71875 -13.765625 -13.828125q-5.03125 -9.125 -5.03125 -22.40625l0 -39.359375q0 -3.53125 2.3125 -5.84375q2.328125 -2.328125 5.84375 -2.328125q3.515625 0 5.828125 2.328125q2.328125 2.3125 2.328125 5.84375l0 39.359375q0 8.953125 3.359375 14.796875q3.375 5.84375 9.125 8.640625q5.765625 2.796875 12.96875 2.796875q6.875 0 12.234375 -2.71875q5.359375 -2.71875 8.5625 -7.359375q3.203125 -4.640625 3.203125 -10.40625l10.078125 0q0 9.921875 -4.890625 17.921875q-4.875 8.0 -13.28125 12.640625q-8.390625 4.640625 -19.109375 4.640625zm35.359375 -0.796875q-3.515625 0 -5.84375 -2.3125q-2.3125 -2.328125 -2.3125 -5.84375l0 -71.359375q0 -3.6875 2.3125 -5.921875q2.328125 -2.25 5.84375 -2.25q3.671875 0 5.90625 2.25q2.25 2.234375 2.25 5.921875l0 71.359375q0 3.515625 -2.25 5.84375q-2.234375 2.3125 -5.90625 2.3125zm44.79193 -54.71875q0 -9.59375 4.71875 -17.1875q4.734375 -7.609375 12.734375 -12.09375q8.0 -4.484375 17.59375 -4.484375q9.59375 0 14.3125 3.125q4.71875 3.125 3.609375 7.4375q-0.484375 2.234375 -1.84375 3.4375q-1.359375 1.203125 -3.125 1.53125q-1.75 0.3125 -3.828125 -0.171875q-10.25 -2.078125 -18.40625 -0.3125q-8.15625 1.75 -12.875 6.5625q-4.71875 4.796875 -4.71875 12.15625l-8.171875 0zm0.171875 54.71875q-3.84375 0 -5.921875 -2.0q-2.078125 -2.0 -2.078125 -6.0l0 -71.515625q0 -3.84375 2.078125 -5.921875q2.078125 -2.078125 5.921875 -2.078125q4.0 0 6.0 2.0q2.0 2.0 2.0 6.0l0 71.515625q0 3.84375 -2.0 5.921875q-2.0 2.078125 -6.0 2.078125zm99.35376 -0.15625q-4.953125 0 -7.6875 -5.28125l-33.90625 -71.515625q-1.28125 -2.734375 -0.25 -5.359375q1.046875 -2.640625 4.078125 -4.09375q2.71875 -1.4375 5.515625 -0.46875q2.8125 0.953125 4.25 3.671875l31.6875 68.328125l-7.6875 0l31.359375 -68.328125q1.4375 -2.71875 4.390625 -3.671875q2.96875 -0.96875 6.015625 0.46875q2.875 1.28125 3.828125 4.0q0.96875 2.71875 -0.3125 5.453125l-33.921875 71.515625q-2.40625 5.28125 -7.359375 5.28125zm95.99567 0.796875q-13.28125 0 -23.609375 -5.671875q-10.3125 -5.6875 -16.15625 -15.6875q-5.828125 -10.0 -5.828125 -22.96875q0 -13.109375 5.515625 -23.109375q5.515625 -10.0 15.28125 -15.671875q9.765625 -5.6875 22.40625 -5.6875q12.46875 0 21.421875 5.515625q8.96875 5.515625 13.6875 15.203125q4.71875 9.671875 4.71875 22.3125q0 3.046875 -2.078125 5.046875q-2.078125 2.0 -5.28125 2.0l-64.46875 0l0 -12.796875l64.0 0l-6.5625 4.46875q-0.15625 -8.0 -3.203125 -14.3125q-3.046875 -6.328125 -8.640625 -10.0q-5.59375 -3.6875 -13.59375 -3.6875q-9.125 0 -15.609375 4.0q-6.46875 4.0 -9.84375 10.96875q-3.359375 6.953125 -3.359375 15.75q0 8.8125 4.0 15.6875q4.0 6.875 11.046875 10.875q7.046875 4.0 16.15625 4.0q4.96875 0 10.15625 -1.828125q5.203125 -1.84375 8.40625 -4.25q2.40625 -1.75 5.203125 -1.828125q2.796875 -0.09375 4.875 1.671875q2.71875 2.40625 2.875 5.28125q0.171875 2.875 -2.546875 4.953125q-5.4375 4.328125 -13.53125 7.046875q-8.078125 2.71875 -15.4375 2.71875zm73.92255 37.76561q-1.59375 0 -3.84375 -0.96875q-7.03125 -3.203125 -3.828125 -10.078125l48.796875 -110.23436q3.203125 -6.71875 10.078125 -3.84375q7.203125 3.03125 4.0 10.078125l-48.96875 110.07811q-1.90625 4.96875 -6.234375 4.96875zm18.875 -41.92186q-3.03125 1.28125 -5.671875 0.25q-2.640625 -1.046875 -4.234375 -4.09375l-36.640625 -69.59375q-1.609375 -3.046875 -0.40625 -5.84375q1.203125 -2.796875 4.234375 -4.078125q3.046875 -1.28125 5.765625 -0.234375q2.71875 1.03125 4.15625 4.0625l35.046875 69.609375q1.59375 3.03125 1.1875 5.84375q-0.390625 2.796875 -3.4375 4.078125zm95.69318 4.15625q-12.484375 0 -22.40625 -5.84375q-9.921875 -5.84375 -15.6875 -15.921875q-5.75 -10.078125 -5.90625 -22.71875l0 -72.95313q0 -3.6875 2.3125 -5.921875q2.328125 -2.234375 5.84375 -2.234375q3.671875 0 5.90625 2.234375q2.25 2.234375 2.25 5.921875l0 43.203133q5.59375 -6.71875 13.515625 -10.640625q7.921875 -3.921875 17.359375 -3.921875q11.6875 0 20.96875 5.84375q9.28125 5.828125 14.640625 15.828125q5.359375 10.0 5.359375 22.640625q0 12.640625 -5.84375 22.71875q-5.84375 10.078125 -15.765625 15.921875q-9.90625 5.84375 -22.546875 5.84375zm0 -14.40625q8.15625 0 14.546875 -3.90625q6.40625 -3.921875 10.15625 -10.796875q3.765625 -6.890625 3.765625 -15.375q0 -8.640625 -3.765625 -15.359375q-3.75 -6.71875 -10.15625 -10.640625q-6.390625 -3.921875 -14.546875 -3.921875q-8.0 0 -14.484375 3.921875q-6.484375 3.921875 -10.171875 10.640625q-3.671875 6.71875 -3.671875 15.359375q0 8.484375 3.671875 15.375q3.6875 6.875 10.171875 10.796875q6.484375 3.90625 14.484375 3.90625zm108.15198 14.40625q-12.953125 0 -22.875 -5.671875q-9.921936 -5.6875 -15.609436 -15.6875q-5.671875 -10.0 -5.671875 -22.96875q0 -13.109375 5.671875 -23.109375q5.6875 -10.0 15.609436 -15.671875q9.921875 -5.6875 22.875 -5.6875q12.796875 0 22.71875 5.6875q9.921875 5.671875 15.59375 15.671875q5.6875 10.0 5.6875 23.109375q0 12.96875 -5.609375 22.96875q-5.59375 10.0 -15.515625 15.6875q-9.90625 5.671875 -22.875 5.671875zm0 -14.40625q8.328125 0 14.71875 -3.828125q6.40625 -3.84375 10.0 -10.5625q3.609375 -6.71875 3.609375 -15.53125q0 -8.796875 -3.609375 -15.59375q-3.59375 -6.796875 -10.0 -10.640625q-6.390625 -3.84375 -14.71875 -3.84375q-8.3125 0 -14.71875 3.84375q-6.40625 3.84375 -10.09375 10.640625q-3.671936 6.796875 -3.671936 15.59375q0 8.8125 3.671936 15.53125q3.6875 6.71875 10.09375 10.5625q6.40625 3.828125 14.71875 3.828125zm100.15625 13.765625q-8.0 0 -14.40625 -4.078125q-6.390625 -4.078125 -10.078125 -11.109375q-3.671875 -7.046875 -3.671875 -15.859375l0 -76.3125q0 -3.515625 2.234375 -5.75q2.25 -2.25 5.765625 -2.25q3.515625 0 5.75 2.25q2.25 2.234375 2.25 5.75l0 76.3125q0 6.40625 3.515625 10.734375q3.53125 4.3125 8.640625 4.3125l5.453125 0q2.875 0 4.875 2.25q2.0 2.234375 2.0 5.75q0 3.515625 -2.640625 5.765625q-2.640625 2.234375 -6.796875 2.234375l-2.890625 0zm-35.515625 -70.5625q-3.359375 0 -5.4375 -1.921875q-2.078125 -1.921875 -2.078125 -4.796875q0 -3.203125 2.078125 -5.109375q2.078125 -1.921875 5.4375 -1.921875l36.96875 0q3.359375 0 5.4375 1.921875q2.078125 1.90625 2.078125 5.109375q0 2.875 -2.078125 4.796875q-2.078125 1.921875 -5.4375 1.921875l-36.96875 0zm111.368164 70.5625q-4.484375 0 -6.890625 -3.84375q-2.390625 -3.84375 -0.46875 -8.15625l44.953125 -107.35938q2.40625 -5.59375 7.84375 -5.59375q5.75 0 7.828125 5.59375l45.125 107.67188q1.765625 4.484375 -0.5625 8.09375q-2.3125 3.59375 -6.953125 3.59375q-2.40625 0 -4.5625 -1.359375q-2.15625 -1.359375 -3.125 -3.765625l-39.671875 -98.5625l4.484375 0l-40.328125 98.5625q-1.125 2.5625 -3.28125 3.84375q-2.15625 1.28125 -4.390625 1.28125zm8.46875 -27.515625l6.40625 -13.765625l62.71875 0l6.40625 13.765625l-75.53125 0zm117.27698 27.515625q-3.515625 0 -5.921875 -2.390625q-2.390625 -2.40625 -2.390625 -5.921875l0 -108.32813q0 -3.671875 2.390625 -5.984375q2.40625 -2.328125 5.921875 -2.328125q3.6875 0 6.0 2.328125q2.328125 2.3125 2.328125 5.984375l0 108.32813q0 3.515625 -2.328125 5.921875q-2.3125 2.390625 -6.0 2.390625z" fill-rule="nonzero"/></g><path fill="#ffffff" d="m57.187664 141.70084l0 0c0 -22.709656 18.409817 -41.11947 41.119473 -41.11947l127.05239 0l0 0c10.905563 0 21.364471 4.3322144 29.075867 12.04361c7.7113953 7.7113953 12.04361 18.170296 12.04361 29.07586l0 132.8162c0 22.709656 -18.40982 41.119446 -41.119476 41.119446l-127.05239 0l0 0c-22.709656 0 -41.119473 -18.40979 -41.119473 -41.119446z" fill-rule="evenodd"/><path stroke="#000000" stroke-width="8.0" stroke-linejoin="round" stroke-linecap="butt" d="m57.187664 141.70084l0 0c0 -22.709656 18.409817 -41.11947 41.119473 -41.11947l127.05239 0l0 0c10.905563 0 21.364471 4.3322144 29.075867 12.04361c7.7113953 7.7113953 12.04361 18.170296 12.04361 29.07586l0 132.8162c0 22.709656 -18.40982 41.119446 -41.119476 41.119446l-127.05239 0l0 0c-22.709656 0 -41.119473 -18.40979 -41.119473 -41.119446z" fill-rule="evenodd"/><path fill="#ffffff" d="m150.95276 38.817585l22.582672 0l0 61.763783l-22.582672 0z" fill-rule="evenodd"/><path stroke="#000000" stroke-width="8.0" stroke-linejoin="round" stroke-linecap="butt" d="m150.95276 38.817585l22.582672 0l0 61.763783l-22.582672 0z" fill-rule="evenodd"/><path fill="#fd7781" d="m138.89108 41.164043l0 0c0 -12.889545 10.456085 -23.338585 23.354324 -23.338585l0 0c6.1939545 0 12.134216 2.4588795 16.514008 6.8357143c4.3797913 4.376833 6.840317 10.313093 6.840317 16.50287l0 0c0 12.889542 -10.456085 23.338581 -23.354324 23.338581l0 0c-12.898239 0 -23.354324 -10.449039 -23.354324 -23.338581z" fill-rule="evenodd"/><path stroke="#000000" stroke-width="8.0" stroke-linejoin="round" stroke-linecap="butt" d="m138.89108 41.164043l0 0c0 -12.889545 10.456085 -23.338585 23.354324 -23.338585l0 0c6.1939545 0 12.134216 2.4588795 16.514008 6.8357143c4.3797913 4.376833 6.840317 10.313093 6.840317 16.50287l0 0c0 12.889542 -10.456085 23.338581 -23.354324 23.338581l0 0c-12.898239 0 -23.354324 -10.449039 -23.354324 -23.338581z" fill-rule="evenodd"/><path fill="#fd7781" d="m79.69685 155.26662l0 0c0 -5.685318 4.608856 -10.294174 10.294167 -10.294174l142.78174 0c2.7301788 0 5.3485413 1.0845642 7.279068 3.015091c1.9305267 1.9305267 3.015091 4.548889 3.015091 7.2790833l0 41.17543c0 5.685318 -4.608856 10.294174 -10.294159 10.294174l-142.78174 0l0 0c-5.6853104 0 -10.294167 -4.608856 -10.294167 -10.294174z" fill-rule="evenodd"/><path stroke="#000000" stroke-width="4.0" stroke-linejoin="round" stroke-linecap="butt" d="m79.69685 155.26662l0 0c0 -5.685318 4.608856 -10.294174 10.294167 -10.294174l142.78174 0c2.7301788 0 5.3485413 1.0845642 7.279068 3.015091c1.9305267 1.9305267 3.015091 4.548889 3.015091 7.2790833l0 41.17543c0 5.685318 -4.608856 10.294174 -10.294159 10.294174l-142.78174 0l0 0c-5.6853104 0 -10.294167 -4.608856 -10.294167 -10.294174z" fill-rule="evenodd"/><path fill="#ffffff" d="m93.24016 175.85432l0 0c0 -12.889542 10.456093 -23.338577 23.354332 -23.338577l0 0c6.1939545 0 12.134224 2.4588776 16.514 6.8357086c4.3797913 4.376831 6.840332 10.313095 6.840332 16.502869l0 0c0 12.889557 -10.4561 23.338593 -23.354332 23.338593l0 0c-12.898239 0 -23.354332 -10.449036 -23.354332 -23.338593z" fill-rule="evenodd"/><path stroke="#000000" stroke-width="4.0" stroke-linejoin="round" stroke-linecap="butt" d="m93.24016 175.85432l0 0c0 -12.889542 10.456093 -23.338577 23.354332 -23.338577l0 0c6.1939545 0 12.134224 2.4588776 16.514 6.8357086c4.3797913 4.376831 6.840332 10.313095 6.840332 16.502869l0 0c0 12.889557 -10.4561 23.338593 -23.354332 23.338593l0 0c-12.898239 0 -23.354332 -10.449036 -23.354332 -23.338593z" fill-rule="evenodd"/><path fill="#ffffff" d="m186.65749 175.85432l0 0c0 -12.889542 10.456085 -23.338577 23.354324 -23.338577l0 0c6.1939545 0 12.134216 2.4588776 16.514008 6.8357086c4.3797913 4.376831 6.840317 10.313095 6.840317 16.502869l0 0c0 12.889557 -10.456085 23.338593 -23.354324 23.338593l0 0c-12.898239 0 -23.354324 -10.449036 -23.354324 -23.338593z" fill-rule="evenodd"/><path stroke="#000000" stroke-width="4.0" stroke-linejoin="round" stroke-linecap="butt" d="m186.65749 175.85432l0 0c0 -12.889542 10.456085 -23.338577 23.354324 -23.338577l0 0c6.1939545 0 12.134216 2.4588776 16.514008 6.8357086c4.3797913 4.376831 6.840317 10.313095 6.840317 16.502869l0 0c0 12.889557 -10.456085 23.338593 -23.354324 23.338593l0 0c-12.898239 0 -23.354324 -10.449036 -23.354324 -23.338593z" fill-rule="evenodd"/><path fill="#fd7781" d="m266.47638 144.97244l31.62204 0l0 78.3307l-31.62204 0z" fill-rule="evenodd"/><path stroke="#000000" stroke-width="8.0" stroke-linejoin="round" stroke-linecap="butt" d="m266.47638 144.97244l31.62204 0l0 78.3307l-31.62204 0z" fill-rule="evenodd"/><path fill="#000000" fill-opacity="0.0" d="m282.2874 223.30315c0 29.527557 -21.433075 59.05513 -42.86615 59.05513" fill-rule="evenodd"/><path stroke="#000000" stroke-width="12.0" stroke-linejoin="round" stroke-linecap="butt" d="m282.2874 223.30315c0 29.527557 -21.433075 59.05513 -42.86615 59.05513" fill-rule="evenodd"/><path fill="#fd7781" d="m207.78346 282.35828l0 0c0 -9.158356 7.078842 -16.582672 15.81102 -16.582672l0 0c4.193344 0 8.214951 1.7470703 11.180084 4.8569336c2.965149 3.1098633 4.630951 7.3277283 4.630951 11.725739l0 0c0 9.158356 -7.078842 16.582672 -15.811035 16.582672l0 0c-8.732178 0 -15.81102 -7.4243164 -15.81102 -16.582672z" fill-rule="evenodd"/><path stroke="#000000" stroke-width="8.0" stroke-linejoin="round" stroke-linecap="butt" d="m207.78346 282.35828l0 0c0 -9.158356 7.078842 -16.582672 15.81102 -16.582672l0 0c4.193344 0 8.214951 1.7470703 11.180084 4.8569336c2.965149 3.1098633 4.630951 7.3277283 4.630951 11.725739l0 0c0 9.158356 -7.078842 16.582672 -15.811035 16.582672l0 0c-8.732178 0 -15.81102 -7.4243164 -15.81102 -16.582672z" fill-rule="evenodd"/><path fill="#000000" fill-opacity="0.0" d="m131.63387 258.38345c17.34256 9.199066 47.779144 10.751221 62.517487 -0.9753113" fill-rule="evenodd"/><path stroke="#000000" stroke-width="12.0" stroke-linejoin="round" stroke-linecap="butt" d="m131.63387 258.38345c17.34256 9.199066 47.779144 10.751221 62.517487 -0.9753113" fill-rule="evenodd"/><path fill="#fd7781" d="m24.665354 144.97244l31.62205 0l0 78.3307l-31.62205 0z" fill-rule="evenodd"/><path stroke="#000000" stroke-width="8.0" stroke-linejoin="round" stroke-linecap="butt" d="m24.665354 144.97244l31.62205 0l0 78.3307l-31.62205 0z" fill-rule="evenodd"/></g></svg>